# xmcd CD database file
#
# Track frame offsets:
#	150
#	11775
#	37205
#	53850
#	78585
#	91725
#	120975
#	147150
#	169425
#	190125
#	210450
#	233400
#	247875
#	267375
#	283130
#	300153
#
# Disc length: 4215 seconds
#
# Revision: 2
# Processed by: cddbd v1.5PL3 Copyright (c) Steve Scherf et al.
# Submitted via: CDex 1.50beta10
#
DISCID=d5107510
DTITLE=Patti Austin - The Best of Patti Austin
DYEAR=1994
DGENRE=Blues
TTITLE0=Take A Closer Look
TTITLE1=Say You Love Me
TTITLE2=You Don't Have To Say You're Sorry
TTITLE3=More Today Than Yesterday
TTITLE4=What's At The End of The Rainbow
TTITLE5=Sweet Sadie The Savior
TTITLE6=That's Enough For Me
TTITLE7=I Just Want To Know
TTITLE8=Havana Candy
TTITLE9=I Need Somebody
TTITLE10=Lost In The Stars
TTITLE11=Another Nail For My Heart
TTITLE12=We've Got Tonight
TTITLE13=(Ooh Wee) He's Killing Me
TTITLE14=Love Me Again
TTITLE15=Soar Me Like An Eagle Flies
EXTD=YEAR: 1994
EXTT0=
EXTT1=
EXTT2=
EXTT3=
EXTT4=
EXTT5=
EXTT6=
EXTT7=
EXTT8=
EXTT9=
EXTT10=
EXTT11=
EXTT12=
EXTT13=
EXTT14=
EXTT15=
PLAYORDER=
